<svg width="20" height="20" viewBox="0 0 20 20" fill="none" xmlns="http://www.w3.org/2000/svg">
<path fill-rule="evenodd" clip-rule="evenodd" d="M5.29303 7.29302C5.48056 7.10555 5.73487 7.00023 6.00003 7.00023C6.26519 7.00023 6.5195 7.10555 6.70703 7.29302L10 10.586L13.293 7.29302C13.3853 7.19751 13.4956 7.12133 13.6176 7.06892C13.7396 7.01651 13.8709 6.98892 14.0036 6.98777C14.1364 6.98662 14.2681 7.01192 14.391 7.0622C14.5139 7.11248 14.6255 7.18673 14.7194 7.28062C14.8133 7.37452 14.8876 7.48617 14.9379 7.60907C14.9881 7.73196 15.0134 7.86364 15.0123 7.99642C15.0111 8.1292 14.9835 8.26042 14.9311 8.38242C14.8787 8.50443 14.8025 8.61477 14.707 8.70702L10.707 12.707C10.5195 12.8945 10.2652 12.9998 10 12.9998C9.73487 12.9998 9.48056 12.8945 9.29303 12.707L5.29303 8.70702C5.10556 8.51949 5.00024 8.26518 5.00024 8.00002C5.00024 7.73486 5.10556 7.48055 5.29303 7.29302Z" fill="#83CEF9"/>
</svg>
